<svg width="61" height="61" viewBox="0 0 61 61" fill="none" xmlns="http://www.w3.org/2000/svg">
<path d="M43.6832 38.9069L42.2909 34.9504L40.4575 29.7407L39.1312 25.9705L37.395 21.0363L35.378 15.3052H25.595L24.0335 19.743L22.6412 23.6995L15.7266 43.3492H22.1789L24.203 37.6136H33.9878L32.2515 32.6794H25.9321L27.2583 28.9091L30.0285 21.0363L30.4864 19.7332L30.9444 21.0363L38.7923 43.3447L38.7941 43.3492H45.2463L43.6832 38.9069Z" fill="#15252D"/>
<path d="M57.0823 15.5456C56.9202 15.2581 56.6505 15.0468 56.3326 14.9582C56.0146 14.8696 55.6745 14.9109 55.387 15.073C55.0996 15.2351 54.8883 15.5048 54.7996 15.8228C54.711 16.1407 54.7523 16.4808 54.9144 16.7683C58.2145 22.636 59.2908 29.4959 57.9465 36.0923C56.6022 42.6887 52.927 48.5802 47.5939 52.6885C42.2608 56.7967 35.6265 58.8468 28.9054 58.4634C22.1843 58.08 15.8262 55.2888 10.9948 50.6007C6.16348 45.9127 3.18219 39.6414 2.5967 32.9349C2.01121 26.2284 3.86069 19.5354 7.80657 14.081C11.7525 8.62671 17.5308 4.77596 24.0837 3.23371C30.6367 1.69146 37.5259 2.56087 43.4902 5.68282C43.2991 6.56265 43.426 7.48175 43.8482 8.27694C44.2705 9.07213 44.9608 9.69197 45.7967 10.0265C46.6326 10.361 47.56 10.3885 48.4142 10.1041C49.2685 9.81968 49.9943 9.24181 50.463 8.47303C50.9316 7.70425 51.1126 6.79431 50.974 5.9047C50.8354 5.0151 50.386 4.20338 49.7057 3.61365C49.0254 3.02392 48.1581 2.6943 47.2578 2.68334C46.3576 2.67237 45.4825 2.98075 44.788 3.55374C38.3054 0.116383 30.8008 -0.868714 23.6507 0.779079C16.5005 2.42687 10.184 6.5971 5.85968 12.525C1.53531 18.4529 -0.507082 25.741 0.107073 33.0529C0.721229 40.3647 3.95077 47.21 9.20339 52.3335C14.456 57.457 21.3796 60.5151 28.7045 60.9471C36.0293 61.379 43.2644 59.1559 49.0828 54.6853C54.9012 50.2147 58.9129 43.7964 60.3822 36.6075C61.8516 29.4185 60.6799 21.9408 57.0823 15.5457V15.5456Z" fill="#15252D"/>
</svg>
